<?xml version="1.0" encoding="UTF-8" standalone="no"?>
<svg
   id="Layer_1"
   data-name="Layer 1"
   width="400"
   height="400"
   viewBox="0 0 400 400"
   version="1.1"
   sodipodi:docname="Microbe_Icon.svg"
   inkscape:version="1.4.3 (0d15f75, 2025-12-25)"
   xmlns:inkscape="http://www.inkscape.org/namespaces/inkscape"
   xmlns:sodipodi="http://sodipodi.sourceforge.net/DTD/sodipodi-0.dtd"
   xmlns="http://www.w3.org/2000/svg"
   xmlns:svg="http://www.w3.org/2000/svg">
  <sodipodi:namedview
     id="namedview11"
     pagecolor="#ffffff"
     bordercolor="#000000"
     borderopacity="0.25"
     inkscape:showpageshadow="2"
     inkscape:pageopacity="0.0"
     inkscape:pagecheckerboard="0"
     inkscape:deskcolor="#d1d1d1"
     showgrid="false"
     inkscape:zoom="0.713"
     inkscape:cx="200.56101"
     inkscape:cy="200.56101"
     inkscape:window-width="1920"
     inkscape:window-height="991"
     inkscape:window-x="-9"
     inkscape:window-y="-9"
     inkscape:window-maximized="1"
     inkscape:current-layer="Layer_1" />
  <defs
     id="defs1">
    <style
       id="style1">
      .cls-1 {
        fill: #fff;
      }

      .cls-2 {
        fill: #fff;
      }
    </style>
    <clipPath
       clipPathUnits="userSpaceOnUse"
       id="clipEmfPath1">
      <path
         d="M 0,0 L 108.86929,0 L 108.86929,108.86929 L 0,108.86929 z"
         id="path1-9" />
    </clipPath>
    <pattern
       id="EMFhbasepattern"
       patternUnits="userSpaceOnUse"
       width="6"
       height="6"
       x="0"
       y="0" />
  </defs>
  <path
     class="cls-1"
     d="M155.84,364.27c-1.41-1.2-2.23-2-2.43-2.4v-11.52c0-1.03-.61-2.92-1.62-5.92-.56-1.67-1.14-3.39-1.34-4.34-.54-2.6-1.07-5.68-.93-8.76l.08-1.7-1.65.4c-4.9,1.18-9.9,1.78-14.86,1.78-19.45,0-38.63-9.43-51.31-25.22-12.55-15.63-17.32-35.52-13.1-54.57l.35-1.59-1.63.04h-.52c-2.24,0-4.8-.31-7.61-.92-.9-.2-2.6-.8-4.23-1.38-2.76-.98-4.49-1.58-5.39-1.58h-11.52c-.39-.2-1.2-1.01-2.4-2.43v-2.41c1.14-1.75,3.63-2.61,7.61-2.61,1.59,0,3.16.13,4.55.24l.38.03c2.84.23,5.58,1.05,8.48,1.91,3.41,1.02,6.93,2.07,10.63,2.07.92,0,1.83-.07,2.71-.2l.66-.1,9.5-19.35-1.52-.39c-3.31-.85-6.08-2.95-9.01-5.17-1.97-1.49-4.01-3.03-6.22-4.15-1.04-.53-2.37-.95-3.78-1.4-2.84-.91-6.37-2.04-6.59-4.01-.18-1.64.03-2.81.63-3.48.49-.54,1.32-.82,2.47-.82,4.26,0,10.79,3.58,12.68,4.67,1.72.99,3.32,2.18,5.02,3.43,3.39,2.51,6.9,5.1,11.35,5.99l.69.14,15.69-16.4-1.2-.86c-2.62-1.87-4.93-4.34-7.16-6.73-1.89-2.03-3.85-4.12-6.02-5.88-.92-.75-2.19-1.48-3.53-2.26-2.64-1.53-5.92-3.43-6.17-5.4-.11-.83.36-1.76,1.38-2.79.66-.66,1.38-.96,2.29-.96,2.13,0,4.75,1.73,6.66,3l.35.23c2.9,1.91,5.4,4.5,7.82,7.01,3.2,3.31,6.5,6.74,10.88,8.84l.84.4,15.75-16.47-1.02-.88c-2.98-2.57-4.9-5.95-6.93-9.52-1.53-2.69-3.12-5.48-5.19-7.88-.75-.87-1.71-1.68-2.64-2.46-3.01-2.55-4.77-4.26-3.07-7.1.82-1.38,1.7-1.54,2.29-1.54,2.23,0,5.78,2.73,9.5,7.3,1.68,2.06,3.06,4.44,4.39,6.73,1.92,3.31,3.91,6.73,6.88,9.45l.89.81,17.42-16.9-.76-.91c-2.57-3.09-4.3-6.91-5.97-10.61-1.29-2.85-2.63-5.8-4.36-8.46-.67-1.03-1.6-2.04-2.59-3.11-3.02-3.26-4.7-5.41-2.6-7.76.69-.77,1.41-1.14,2.21-1.14,3.12,0,7.38,5.33,10.08,9.9,1.04,1.76,1.88,3.79,2.68,5.75.92,2.24,1.87,4.56,3.16,6.57l.13.21c1.39,2.21,2.37,3.41,3.59,3.41.2,0,.4-.04.59-.11l.27-.1,16.87-17.5-.72-.88c-2.48-3.03-4.11-6.53-5.83-10.23-1.25-2.69-2.55-5.46-4.19-8.02-.63-.97-1.5-1.98-2.43-3.05-2.95-3.39-4.89-5.95-3.11-8.14.74-.91,1.52-1.35,2.38-1.35,2.62,0,6.47,3.88,10.29,10.39,1.03,1.75,1.87,3.71,2.68,5.59,1.46,3.39,2.97,6.89,5.71,9.71l.91.94,16.72-16.93-.54-.86c-2.22-3.5-3.53-7.49-4.8-11.35-.79-2.4-1.61-4.89-2.64-7.25-.55-1.26-1.44-2.64-2.37-4.11-2.2-3.45-4.7-7.36-2.77-9.6.71-.82,1.42-1.22,2.16-1.22,2.78,0,6.45,5.21,8.85,10.38.99,2.14,1.7,4.44,2.38,6.68,1.1,3.61,2.24,7.34,4.63,10.57l.89,1.2,17.43-17.64-.41-.82c-1.98-3.96-2.76-8.21-3.58-12.7-.51-2.81-1.04-5.71-1.89-8.51-.36-1.17-.97-2.46-1.63-3.83-2.13-4.45-3.32-7.48-.68-8.99.63-.36,1.23-.54,1.79-.54,1.67,0,4.24,1.69,6.99,9.76.91,2.66,1.36,5.65,1.8,8.54.47,3.09.96,6.28,2,9.06,0,1.33.86,1.77,1.66,1.77.18,0,.43-.02.76-.07l.37-.06.28-.25c5.45-4.83,12.32-8.79,19.87-11.48l.73-.26.11-.77c.62-4.48-.66-8.76-1.89-12.9-.8-2.68-1.56-5.22-1.81-7.76l-.02-.17c-.33-3.28-1.02-10.1,1.28-12.64.57-.63,1.28-.93,2.24-.93,1.03,0,1.79.27,2.33.83,1.53,1.58,1.39,5.4,1.29,8.47-.05,1.51-.1,2.94.03,4.09.28,2.42,1.07,4.96,1.84,7.41,1.06,3.4,2.16,6.91,1.97,10.22l-.08,1.41,1.42-.07c1.66-.08,3.43-.2,5.26-.32,3.52-.24,7.15-.49,10.76-.49,5.25,0,9.37.56,12.6,1.7,1.92.68,3.25,1.78,3.57,2.96.24.85-.07,1.79-.9,2.8-.73.88-1.66,1.27-3.03,1.27-1.29,0-2.78-.36-4.21-.71-1.22-.3-2.49-.61-3.66-.69-2.22-.16-4.39-.25-6.46-.25-13.19,0-24.1,3.27-34.31,10.28l-.08.06-.07.07c-52.52,49.93-101.9,99.36-146.77,146.89l-.09.09-.07.11c-12.45,19.82-13.51,42.19-2.91,61.36,10.59,19.15,31.22,31.53,52.55,31.53,13.35,0,26.51-4.76,38.06-13.77l.06-.05,138.11-138.11c19.76-23.05,19.19-57.16-1.26-79.4-1.15-1.25-3.49-3.13-5.75-4.96-2.01-1.62-4.75-3.83-5.12-4.46-.76-1.32-.83-2.86-.16-4.01.59-1.03,1.66-1.59,3-1.59h.22c2.68.13,11.09,7.79,14.63,11.89,13.26,15.38,18.69,36.44,14.89,57.79l-.3,1.68,1.69-.18c.48-.05.98-.08,1.49-.08,3.18,0,6.48,1.02,9.66,2,2.54.79,5.17,1.6,7.72,1.88.48.05,1.04.08,1.71.08.74,0,1.55-.03,2.38-.06.87-.03,1.78-.07,2.68-.07,4.19,0,6.07.82,6.48,2.82.25,1.2.09,2.12-.47,2.81-.72.89-2.59,1.94-7.38,1.94-2.17,0-4.34-.22-5.77-.36-2.6-.26-5.2-1.03-7.94-1.84-3.48-1.03-7.07-2.09-10.8-2.09-1,0-1.98.08-2.92.23l-.6.1-.3.52c-1.13,1.95-2.15,3.98-3.14,5.93-1.19,2.36-2.43,4.8-3.84,7.08-.44.71-1.41,1.88-2.35,3.01-1.5,1.81-2.44,2.96-2.78,3.76-.24.55-.23,1.14.02,1.65.53,1.08,1.95,1.44,2.99,1.71.19.05.37.09.49.13,2.67.89,5.53,1.34,8.29,1.78,2.59.41,5.26.83,7.74,1.61,7.69,2.42,9.97,4.78,10.52,6.34.33.94.14,1.93-.58,3.02-.5.76-1.22,1.1-2.31,1.1-2.15,0-5.13-1.36-7.76-2.56-1.81-.83-3.52-1.61-4.97-1.97-2.12-.53-4.29-.89-6.39-1.23-4.67-.77-9.07-1.49-13.12-3.98l-.84-.52-18.13,17.45,1.17.91c3.49,2.7,7.6,3.96,11.57,5.18,2.2.68,4.48,1.37,6.57,2.3,4.68,2.09,9.92,5.37,10.59,8.33.21.94-.05,1.79-.82,2.69-.54.62-1.18.92-2.04.92-2.24,0-5.37-1.99-7.89-3.59-1.46-.93-2.83-1.8-3.99-2.29-2.1-.88-4.3-1.56-6.43-2.22-4.49-1.39-8.74-2.7-12.25-5.76l-.52-.46-2.81.8-14.89,15.61.8.88c2.9,3.21,6.8,4.93,10.56,6.59,1.96.87,3.99,1.76,5.79,2.84,8.26,4.94,9.79,8.18,9.96,9.67.11.93-.22,1.73-1.04,2.52-.57.55-1.17.8-1.89.8-2.29,0-5.4-2.59-7.9-4.67-1.45-1.21-2.82-2.35-4.04-3.04-1.67-.95-3.57-1.76-5.42-2.55-1.9-.81-3.86-1.65-5.57-2.63-.41-.24-1.25-.88-2.07-1.51-2.67-2.06-4.04-3.03-5.11-3.03-.24,0-.47.05-.68.14l-.21.1-17.26,17.31,1.01.9c3.51,3.12,7.57,5.05,11.5,6.9,4.01,1.9,7.8,3.69,11.12,6.66l.19.17c3.15,2.82,5.06,4.86,3.16,7.5-1.1,1.52-2.04,1.52-2.35,1.53-1.77,0-4.01-2.05-5.81-3.7-.96-.88-1.87-1.71-2.73-2.28-2.53-1.69-5.39-2.98-8.16-4.22-4.54-2.04-8.83-3.97-11.9-7.55l-.9-1.05-17.18,17.18v.53c0,1.67,2.17,3.14,8.44,7.16,6.57,4.21,16.5,10.56,16.75,14.95.07,1.27-1.37,3.25-2.53,3.46-.37.07-.73.1-1.07.1-2.05,0-3.21-1.29-4.92-3.4-.79-.97-1.61-1.97-2.63-2.86-2.42-2.1-5.26-3.74-8.01-5.33-3.85-2.23-7.83-4.53-10.55-8.07l-.89-1.16-16.06,16.22.4.82c2.28,4.62,5.79,8.04,9.2,11.33,2.63,2.55,5.35,5.18,7.42,8.33,3.53,5.37,3.38,7.81,2.98,8.78-.34.82-1.17,1.36-2.52,1.64-.29.06-.58.09-.84.09-2.11,0-3.33-2.03-4.94-5.12-.86-1.64-1.74-3.33-2.94-4.53l-14.74-15.48-15.35,15.99.11.64c.86,4.83,3.6,8.58,6.26,12.19,1.22,1.66,2.47,3.37,3.49,5.13,2.83,4.91,5.68,11.64,4.39,14.47-.2.44-.6,1.04-1.8,1.27-.45.09-.88.13-1.27.13-2.76,0-3.61-2.33-4.77-6.12-.45-1.47-.91-2.99-1.59-4.33-1.18-2.33-2.81-4.51-4.38-6.62-2.3-3.07-4.67-6.25-5.6-9.88l-.4-1.57-18.7,9.85-.09.65c-.69,4.89.62,9.5,1.89,13.96.86,3.03,1.68,5.9,1.91,8.84l.04.44c.32,4.02.81,10.04-2.37,12.11h-2.41Z"
     id="path1"
     style="fill:#ffffff;fill-opacity:1" />
  <path
     class="cls-1"
     d="M91.68,258.94c-2.14,0-2.66-.91-2.82-1.21-1.38-2.42.66-9.01,5.21-16.81,34.99-38.2,72.72-75.22,109.22-111.03,11.1-10.89,22.58-22.16,33.8-33.28,5.28-3.88,13.83-8.13,21.1-8.96,2.03-.23,4.07-.35,6.06-.35,19.02,0,35.7,10.55,43.54,27.53,7.62,16.51,4.91,34.87-7.23,49.11-2.28,2.67-15.7,16.12-17.22,16.96-.41.18-.86.27-1.31.27-1.23,0-2.38-.74-2.99-1.93-.7-1.37-.51-2.97.52-4.4,2.36-3.27,5.37-5.99,8.56-8.87,4.55-4.11,9.26-8.37,12.29-14.53,6.25-12.72,5.74-26.57-1.38-38-7.36-11.81-20.41-19.15-34.05-19.15-8.82,0-17.38,3.11-24.75,8.99l-.11.1L103.32,240.21l-.05.06c-1.59,2-3.59,4.68-5.01,7.68-.56,1.19-.96,2.56-1.38,4.02-1.22,4.21-2.24,6.97-5.19,6.97h-.02Z"
     id="path2"
     style="fill:#ffffff;fill-opacity:1" />
  <path
     class="cls-1"
     d="M133.8,311.59c-12.57,0-24.56-4.78-32.9-13.12-4.49-4.49-13.4-17.55-11.27-22.26.27-.59,2.12-1.79,2.83-1.84.09,0,.17,0,.26,0,2.27,0,3.25,2.28,4.39,5.49.38,1.07.74,2.08,1.19,2.92,7.4,13.7,20.57,21.88,35.22,21.88,9.45,0,18.53-3.42,26.26-9.88l103.47-103.5c.94-.71,1.96-1.09,2.95-1.09,1.34,0,2.51.69,3.06,1.79.59,1.19.35,2.6-.69,4l-105.34,105.32c-7.88,6.61-18.35,10.3-29.42,10.3Z"
     id="path3"
     style="fill:#ffffff;fill-opacity:1" />
  <path
     class="cls-2"
     d="M209.83,186.32c-4.63,0-8.85-2.43-11.29-6.51-2.55-4.26-2.6-9.33-.14-13.91,2.29-4.26,15.68-17.44,19.75-18.13,1-.17,2-.26,2.97-.26,4.45,0,8.47,1.81,11.03,4.96,2.55,3.14,3.45,7.32,2.52,11.77-1.05,5.05-15.62,19.73-20.23,21.3-1.53.52-3.08.79-4.6.79ZM221.53,154.71c-.64,0-1.3.08-1.97.23-2.64.61-5.82,4.2-10.04,9.2-1.73,2.05-3.36,3.99-4.45,4.91l-.19.16-.12.22c-1.23,2.36-1.24,4.85-.03,6.83,1.08,1.79,3,2.85,5.12,2.85h0c1.38,0,2.8-.46,4.1-1.32,1.38-.92,12.35-12,13.12-13.76,1.05-2.4.96-4.83-.24-6.67-1.11-1.7-3.04-2.67-5.3-2.67Z"
     id="path4"
     style="fill:#ffffff;fill-opacity:1" />
  <path
     class="cls-2"
     d="M183.31,248.21c-4.58,0-10.31-2.29-12.64-8.73-1.53-4.23-4-18.25-3.7-22.26.22-2.85,1.8-6.34,3.76-8.31,2.44-2.44,5.82-3.78,9.53-3.78,5.35,0,10.14,2.86,12.22,7.28,1.93,4.1,4.79,20.63,4.24,24.56-1.07,7.73-7.7,11.25-13.42,11.25ZM180.32,212.17c-.75,0-1.5.11-2.23.33-1.03.31-3.15,2.33-3.51,3.2-1.28,3.07,1.68,17.28,2.39,19.72,1.24,4.28,4.25,5.8,6.66,5.8,3.21,0,5.75-2.47,6.03-5.87.21-2.58-2.62-18.04-3.94-20.29-1.06-1.81-3.08-2.9-5.4-2.9Z"
     id="path5"
     style="fill:#ffffff;fill-opacity:1" />
  <path
     class="cls-2"
     d="M120.87,280.88c-8.36,0-12.62-6.3-13.14-12.55-.52-6.23,2.62-13.14,10.82-14.52.97-.16,1.93-.25,2.85-.25,8.49,0,12.69,6.86,12.99,13.24.3,6.38-3.25,13.18-11.87,14-.56.05-1.11.08-1.64.08ZM121.22,260.7c-2.62,0-5.2,1.78-6.27,4.32-.99,2.34-.49,4.85,1.33,6.72,1.28,1.31,2.84,2,4.51,2h0c2.65,0,5.24-1.8,6.31-4.37.97-2.35.45-4.85-1.39-6.71-1.28-1.28-2.83-1.96-4.48-1.96Z"
     id="path6"
     style="fill:#ffffff;fill-opacity:1" />
  <path
     class="cls-2"
     d="M219.81,209.19c-2.06,0-3.01-.5-4.21-1.13-.91-.48-1.94-1.02-3.51-1.38-.82-.19-1.68-.23-2.51-.27-2.35-.11-3.6-.26-4.22-2.22-.42-1.35-.35-2.38.22-3.16.83-1.13,2.82-1.81,5.32-1.81.71,0,1.42.06,2.1.16.82.13,1.66.61,2.56,1.13,1.22.7,2.61,1.49,4.24,1.49.23,0,.46-.02.7-.05,1.52-.22,2.7-1.54,4.06-3.08,1.7-1.92,3.64-4.1,6.5-4.56.31-.05.61-.07.9-.07,1.32,0,2.42.49,3.09,1.39.69.93.84,2.19.43,3.56-.22.72-1.4,1.37-2.44,1.94-.8.44-1.63.89-2.26,1.47-.98.9-1.75,1.79-2.43,2.57-1.84,2.12-3.05,3.51-6.83,3.91-.62.06-1.2.1-1.71.1Z"
     id="path7"
     style="fill:#ffffff;fill-opacity:1" />
  <path
     class="cls-2"
     d="M151.94,244.06c-.55,0-1.11-.06-1.66-.18-1.49-.32-3.19-1.75-4.69-3.02-1.72-1.46-3.21-2.71-4.74-2.73h0c-1.64,0-3.08.86-4.61,1.77-1.84,1.1-3.75,2.23-6.23,2.23-.23,0-.47-.01-.72-.03-1.55-.14-2.86-.99-3.43-2.22-.51-1.13-.34-2.38.49-3.54.82-1.14,1.68-1.22,2.98-1.36.76-.08,1.62-.17,2.53-.5.89-.33,1.69-.95,2.54-1.61.96-.74,1.95-1.51,2.95-1.72,1.46-.3,2.71-.45,3.81-.45,3.29,0,4.93,1.32,7.64,3.51.79.64,1.64,1.32,2.62,2.04.73.54,1.47.81,2.12,1.04.84.3,1.51.55,2.17,1.34.69.84,1.4,2.08.84,3.26-.6,1.26-2.48,2.15-4.58,2.15Z"
     id="path8"
     style="fill:#ffffff;fill-opacity:1" />
  <path
     class="cls-2"
     d="M181.71,184.61c8.46-1.73,7.36,12.69-.96,9.1-4.06-1.75-3.42-8.2.96-9.1Z"
     id="path9"
     style="fill:#ffffff;fill-opacity:1" />
  <path
     class="cls-2"
     d="M257.13,165.78c-2.17,0-3.12-1.75-3.27-3.25-.16-1.62.54-3.43,2.47-3.82.34-.07.67-.1.98-.1,2.19,0,3.37,1.73,3.53,3.34.15,1.5-.49,3.27-2.75,3.73-.34.07-.66.1-.97.1Z"
     id="path10"
     style="fill:#ffffff;fill-opacity:1" />
  <path
     class="cls-2"
     d="M155.69,262.38c5.37.01,6.47,8.44,1.27,9.41-8.04,1.49-8.02-9.42-1.27-9.41Z"
     id="path11"
     style="fill:#ffffff;fill-opacity:1" />
</svg>
